<?xml version="1.0" encoding="utf-8"?>
<!-- Generator: Adobe Illustrator 17.0.0, SVG Export Plug-In . SVG Version: 6.00 Build 0)  -->
<!DOCTYPE svg PUBLIC "-//W3C//DTD SVG 1.1//EN" "http://www.w3.org/Graphics/SVG/1.1/DTD/svg11.dtd">
<svg version="1.1" id="Layer_1" xmlns="http://www.w3.org/2000/svg" xmlns:xlink="http://www.w3.org/1999/xlink" x="0px" y="0px"
	 width="1280px" height="800px" viewBox="0 0 1280 800" enable-background="new 0 0 1280 800" xml:space="preserve">
<path opacity="0.1" fill="#505050" d="M884.2,724.6v-8l-4.9-0.8c-0.3-0.8-0.6-1.5-0.9-2.2l2.9-4l-5.7-5.7l-4,2.9
	c-0.7-0.4-1.5-0.7-2.2-0.9l-0.8-4.9h-4h-4l-0.8,4.9c-0.8,0.3-1.5,0.6-2.2,0.9l-4-2.9l-5.7,5.7l2.9,4c-0.4,0.7-0.7,1.5-0.9,2.2
	l-4.9,0.8v8l4.9,0.8c0.3,0.8,0.6,1.5,0.9,2.2l-2.9,4l5.7,5.7l4-2.9c0.7,0.4,1.5,0.7,2.2,0.9l0.8,4.9h4h4l0.8-4.9
	c0.8-0.3,1.5-0.6,2.2-0.9l4,2.9l5.7-5.7l-2.9-4c0.4-0.7,0.7-1.5,0.9-2.2L884.2,724.6z M864.5,731.3c-5.9,0-10.7-4.8-10.7-10.7
	c0-5.9,4.8-10.7,10.7-10.7c5.9,0,10.7,4.8,10.7,10.7C875.2,726.5,870.4,731.3,864.5,731.3z"/>
<g opacity="0.1">
	<polygon fill="#BCBCBC" points="50.7,639.8 36,648.3 21.3,656.8 21.3,639.8 21.3,622.8 36,631.3 	"/>
	<path fill="#DFDFDF" d="M645.2,699h-29.7v-32.4c0-8.2,6.7-14.9,14.9-14.9l0,0c8.2,0,14.9,6.7,14.9,14.9V699z"/>
	<path fill="#DFDFDF" d="M559.6,651.7c-8.3,0-15,6.7-15,15v88.8h70.9V699v-32.4c0-8.2,6.7-14.9,14.9-14.9H559.6z"/>
	<path fill="#DFDFDF" d="M1229.9,410.4c20.7,0,37.5,16.8,37.5,37.5c0,15.8-9.8,29.4-23.7,34.9c2.5,4.5,6.2,8.7,10.7,12.3
		c-1.2-0.1-2.4-0.3-3.6-0.5c-7.5-1.4-13.9-4.8-18.6-9.2c-0.7,0-1.5,0.1-2.2,0.1c-20.7,0-37.5-16.8-37.5-37.5
		C1192.4,427.2,1209.2,410.4,1229.9,410.4z"/>
	<path fill="#DFDFDF" d="M1109.1,390.6h-71.4c-5.4,0-9.7-4.4-9.7-9.7v-51.9c0-5.4,4.4-9.7,9.7-9.7h71.4c5.4,0,9.7,4.4,9.7,9.7v51.9
		C1118.9,386.3,1114.5,390.6,1109.1,390.6z"/>
	<g id="heart_2_">
		<g>
			<path fill="#DFDFDF" d="M217.3,607.2v4.4c-0.1,1.2-0.4,2.4-0.8,3.6c-1.1,3.2-3.1,6.7-5.9,10.3c-1,1.3-2.1,2.6-3.3,4
				c-1,1.1-2,2.3-3.1,3.5c-2.3,2.4-4.8,4.9-7.4,7.4c-3.6,3.5-7.5,7.1-11.5,10.8c-0.5,0.4-1,0.8-1.5,1.2c-1.2,0.8-2.5,1.4-3.8,1.8
				c-2.8,0.8-5.8,0.7-8.5-0.3c-1.4-0.5-2.7-1.2-3.8-2.2c-0.2-0.2-0.4-0.3-0.6-0.5c-4.2-3.9-8.1-7.5-11.7-11
				c-2.7-2.6-5.2-5.1-7.4-7.4c-1-1.1-2-2.2-3-3.3c-1.2-1.4-2.3-2.7-3.3-4c-2.8-3.6-4.8-7-5.8-10.3c-0.4-1.2-0.6-2.5-0.7-3.6v-4.4
				c0.2-2.5,0.7-4.8,1.4-6.8c1.3-3.6,3.2-6.5,5.5-8.7c3.4-3.3,7.6-5.1,11.5-5.5c1.3-0.1,2.6-0.2,3.7-0.2c4.3,0,7.6,0.8,10.3,2.2
				c1.4,0.7,2.6,1.6,3.8,2.6c1.6,1.3,3.1,2.9,4.7,4.7c1.3-1.4,2.5-2.8,3.8-3.9c1.2-1.1,2.5-2.1,3.8-2.9c3-1.7,6.5-2.7,11.2-2.7
				c1.2,0,2.4,0,3.7,0.2c3.8,0.3,7.9,2.1,11.3,5.3c2.3,2.2,4.3,5.1,5.6,8.6C216.6,602.2,217.1,604.6,217.3,607.2z"/>
		</g>
	</g>
	<path fill="#DFDFDF" d="M798,605.7c-16-16-29.1-32.4-38.6-47.4c-30.4,13.8-67.5,8.2-92.5-16.8c-31.8-31.8-32.2-82.9-1.5-115.3
		c-4.9,3.2-9.5,6.9-13.7,11.1c-33.2,33.2-33.2,87.2,0,120.5c16.1,16.1,37.5,24.9,60.2,24.9c11.6,0,22.8-2.3,33.1-6.7
		c9.8,15.2,22.8,31,37.7,46c33.3,33.3,69.9,55.6,91,55.6c0,0,0,0,0,0c5.7,0,10.3-1.6,13.4-4.8c3.1-3.1,4.5-7.4,4.6-12.7
		C873.4,664.1,834.5,642.1,798,605.7z"/>
	<path fill="#DFDFDF" d="M841,635.2H473.7c-12.5,0-22.7-10.1-22.7-22.7V377.1c0-12.5,10.1-22.7,22.7-22.7H841
		c12.5,0,22.7,10.1,22.7,22.7v235.5C863.7,625.1,853.6,635.2,841,635.2z"/>
	<path fill="#505050" d="M507.2,327.2l29.3,41.6h294.8v-22.8c0-10.4-8.4-18.8-18.8-18.8H507.2z"/>
	<path fill="#D3D3D3" d="M437.9,327.2h69.3l29.3,41.6h294.8v220.3c0,10.4-8.4,18.8-18.8,18.8H437.9V327.2z"/>
	<path fill="none" stroke="#505050" stroke-width="3" stroke-miterlimit="10" d="M808.6,608H441.3c-12.5,0-22.7-10.1-22.7-22.7
		V349.9c0-12.5,10.1-22.7,22.7-22.7h367.3c12.5,0,22.7,10.1,22.7,22.7v235.5C831.3,597.9,821.1,608,808.6,608z"/>
	<polyline fill="none" stroke="#505050" stroke-width="3" stroke-miterlimit="10" points="507.2,327.2 536.5,368.8 831.3,368.8 	"/>
	<circle fill="#DFDFDF" cx="733" cy="348" r="6.4"/>
	<circle fill="#DFDFDF" cx="766.4" cy="348" r="6.4"/>
	<circle fill="#DFDFDF" cx="799.9" cy="348" r="6.4"/>
	<path fill="#BCBCBC" d="M720.5,511.5H529.4c-17,0-30.9-13.8-30.9-30.9v0c0-17,13.8-30.9,30.9-30.9h191.1c17,0,30.9,13.8,30.9,30.9
		v0C751.4,497.7,737.6,511.5,720.5,511.5z"/>
	<text transform="matrix(1 0 0 1 545.5015 498.416)" fill="#505050" font-family="'MyriadPro-Regular'" font-size="54.4833">A</text>
	<line fill="none" stroke="#505050" stroke-width="3" stroke-miterlimit="10" x1="593.2" y1="471.1" x2="627.4" y2="471.1"/>
	<line fill="none" stroke="#505050" stroke-width="3" stroke-miterlimit="10" x1="593.2" y1="494.1" x2="627.4" y2="494.1"/>
	<line fill="none" stroke="#505050" stroke-width="3" stroke-miterlimit="10" x1="545.5" y1="517.1" x2="632.8" y2="517.1"/>
	<line fill="none" stroke="#505050" stroke-width="3" stroke-miterlimit="10" x1="545.5" y1="540.1" x2="644.9" y2="540.1"/>
	<line fill="none" stroke="#505050" stroke-width="3" stroke-miterlimit="10" x1="545.5" y1="563" x2="666.9" y2="563"/>
	<path fill="#DFDFDF" d="M313.6,488.8v-35.5l21.5-3.7c1.1-3.4,2.5-6.7,4.1-9.9L326.5,422l25.1-25.1l17.8,12.6c3.2-1.6,6.5-3,9.9-4.1
		l3.7-21.5h17.7v39.8c-26.2,0-47.4,21.2-47.4,47.4s21.2,47.4,47.4,47.4v39.8H383l-3.7-21.5c-3.4-1.1-6.7-2.5-9.9-4.1l-17.8,12.6
		l-25.1-25.1l12.6-17.8c-1.6-3.2-3-6.5-4.1-9.9L313.6,488.8z"/>
	<path fill="#DFDFDF" d="M950.2,711.9v-12.6l-7.6-1.3c-0.4-1.2-0.9-2.4-1.5-3.5l4.5-6.3l-8.9-8.9l-6.3,4.5c-1.1-0.6-2.3-1.1-3.5-1.5
		l-1.3-7.6h-6.3h-6.3l-1.3,7.6c-1.2,0.4-2.4,0.9-3.5,1.5l-6.3-4.5l-8.9,8.9l4.5,6.3c-0.6,1.1-1.1,2.3-1.5,3.5l-7.6,1.3v12.6l7.6,1.3
		c0.4,1.2,0.9,2.4,1.5,3.5l-4.5,6.3l8.9,8.9l6.3-4.5c1.1,0.6,2.3,1.1,3.5,1.5l1.3,7.6h6.3h6.3l1.3-7.6c1.2-0.4,2.4-0.9,3.5-1.5
		l6.3,4.5l8.9-8.9l-4.5-6.3c0.6-1.1,1.1-2.3,1.5-3.5L950.2,711.9z M919.4,722.5c-9.3,0-16.8-7.5-16.8-16.8s7.5-16.8,16.8-16.8
		c9.3,0,16.8,7.5,16.8,16.8S928.6,722.5,919.4,722.5z"/>
	
		<path fill="none" stroke="#505050" stroke-width="3" stroke-linecap="round" stroke-linejoin="round" stroke-miterlimit="10" stroke-dasharray="12" d="
		M833.3,469.6h40c42.1,0,76.2,34.1,76.2,76.2v45c0,56.1,45.5,101.6,101.6,101.6h0c56.1,0,101.6-45.5,101.6-101.6v0
		c0-40.7,33-73.7,73.7-73.7h54.5"/>
	<path fill="none" stroke="#505050" stroke-width="3" stroke-linecap="round" stroke-miterlimit="10" stroke-dasharray="12" d="
		M418.6,579.1h-56c-52.3,0-94.7-42.4-94.7-94.7v-45c0-52.3-42.4-94.7-94.7-94.7H-0.2"/>
	<g>
		<path fill="#DFDFDF" d="M1079,645.1l-57.8-2.9c-5.5-0.3-9.8-5-9.5-10.5l2-40.9c0.3-5.5,5-9.8,10.5-9.5l57.8,2.9
			c5.5,0.3,9.8,5,9.5,10.5l-2,40.9C1089.3,641.1,1084.6,645.4,1079,645.1z"/>
		<path fill="none" stroke="#505050" stroke-width="3" stroke-miterlimit="10" d="M1073.3,634.8l-57.8-2.9c-5.5-0.3-9.8-5-9.5-10.5
			l2-40.9c0.3-5.5,5-9.8,10.5-9.5l57.8,2.9c5.5,0.3,9.8,5,9.5,10.5l-2,40.9C1083.6,630.8,1078.9,635,1073.3,634.8z"/>
		<path fill="#BCBCBC" d="M1032.6,602.2l0.6-11.5c0.1-2.6,3.1-4.1,5.3-2.7l9.6,6.2l9.6,6.2c2.2,1.4,2.1,4.7-0.3,5.9l-10.2,5.2
			l-10.2,5.2c-2.3,1.2-5.1-0.6-5-3.2L1032.6,602.2z"/>
	</g>
	<g>
		<circle opacity="0.5" fill="#FFFFFF" cx="725.3" cy="483" r="69.9"/>
		<circle fill="none" stroke="#505050" stroke-width="3" stroke-miterlimit="10" cx="725.3" cy="483" r="82.6"/>
		<path fill="none" stroke="#505050" stroke-width="3" stroke-linecap="round" stroke-miterlimit="10" d="M782.6,478.3
			c-0.3-6.4-1.6-12.8-4.1-18.9"/>
		<path fill="none" stroke="#505050" stroke-width="3" stroke-linecap="round" stroke-miterlimit="10" d="M766.2,440.9
			c-21.9-21.9-57.3-21.9-79.2,0"/>
		<path fill="#FFFFFF" d="M902.8,647c-0.3,4-1.6,7.2-3.9,9.5c-9,9-31.4,2.4-57.6-14.9c-4-2.7-8.1-5.6-12.3-8.8
			c-10.2-7.7-20.6-16.8-30.9-27.1c-16-16-29.1-32.4-38.6-47.4c4.7-2.1,9.2-4.7,13.5-7.7c3.8-2.7,7.4-5.7,10.8-9.1
			c7.3-7.2,12.9-15.5,16.8-24.3c15,9.5,31.4,22.6,47.4,38.6c10.3,10.3,19.5,20.8,27.2,31c3.2,4.2,6.1,8.3,8.7,12.3
			C896.8,618.3,903.7,635.6,902.8,647z"/>
		<path fill="#E0E0E0" d="M902.8,647c-19.8,2.9-59.2-19.7-96.2-56.7c-13.3-13.3-24.7-26.9-33.7-39.7c3.8-2.7,7.4-5.7,10.8-9.1
			c7.3-7.2,12.9-15.5,16.8-24.3c15,9.5,31.4,22.6,47.4,38.6C882.8,590.5,904.4,627.5,902.8,647z"/>
		<path fill="none" stroke="#505050" stroke-width="3" stroke-miterlimit="10" d="M783.8,541.4c-7.2,7.2-15.5,12.9-24.3,16.8
			c9.4,15,22.6,31.4,38.6,47.4c41.9,41.9,87,64.7,100.8,50.8c13.8-13.8-9-58.9-50.8-100.8c-16-16-32.4-29.1-47.4-38.6
			C796.6,525.9,791,534.2,783.8,541.4z"/>
		<g>
			<path fill="#505050" d="M875.2,586.7c-5.8,8.8-12.7,17.2-20.6,25.1c-8,8-16.6,15-25.6,21c4.2,3.2,8.3,6.1,12.3,8.8
				c8.2-5.8,16-12.4,23.4-19.7c7.2-7.2,13.7-14.9,19.3-22.9C881.3,595,878.4,590.8,875.2,586.7z"/>
		</g>
	</g>
	<g>
		<path fill="#DFDFDF" d="M178.6,438.3c-1.3,0-2.6,0.1-3.9,0.3c0.3-1.7,0.4-3.5,0.4-5.2c0-18.1-14.6-32.7-32.7-32.7
			c-15.6,0-28.7,10.9-31.9,25.6c-1.8-0.3-3.7-0.5-5.6-0.5c-18.1,0-32.7,14.6-32.7,32.7c0,18.1,14.6,32.7,32.7,32.7h73.7
			c14.6,0,26.4-11.8,26.4-26.4C205,450.1,193.2,438.3,178.6,438.3z"/>
		<path fill="none" stroke="#505050" stroke-width="3" stroke-miterlimit="10" d="M167.6,429.5c-1.3,0-2.6,0.1-3.9,0.3
			c0.3-1.7,0.4-3.5,0.4-5.2c0-18.1-14.6-32.7-32.7-32.7c-15.6,0-28.7,10.9-31.9,25.6c-1.8-0.3-3.7-0.5-5.6-0.5
			c-18.1,0-32.7,14.6-32.7,32.7c0,18.1,14.6,32.7,32.7,32.7h73.7c14.6,0,26.4-11.8,26.4-26.4C194,441.3,182.2,429.5,167.6,429.5z"/>
		<polygon fill="#BCBCBC" points="145.5,468.9 145.5,434.4 109.7,434.4 109.7,468.9 95.9,468.9 127.6,507.7 159.3,468.9 		"/>
		
			<polygon fill="none" stroke="#505050" stroke-width="3" stroke-linecap="round" stroke-linejoin="round" stroke-miterlimit="10" points="
			145.5,468.9 145.5,434.4 109.7,434.4 109.7,468.9 95.9,468.9 127.6,507.7 159.3,468.9 		"/>
	</g>
	<path fill="none" stroke="#505050" stroke-width="3" stroke-linecap="round" stroke-miterlimit="10" stroke-dasharray="12" d="
		M159.3,755.6V743c0-27.9,22.7-50.6,50.6-50.6h242.9c33.2,0,60.2-27,60.2-60.2V608"/>
	<path fill="none" stroke="#505050" stroke-width="3" stroke-linecap="round" stroke-miterlimit="10" stroke-dasharray="12" d="
		M-0.2,511.5h22.7c27.5,0,49.8,22.3,49.8,49.8v194.3"/>
	
		<path fill="none" stroke="#505050" stroke-width="3" stroke-linecap="round" stroke-linejoin="round" stroke-miterlimit="10" stroke-dasharray="12" d="
		M833.3,413.1h317.5c23.7,0,42.9-19.2,42.9-42.9l0,0c0-23.7,19.2-42.9,42.9-42.9h44.1"/>
	<g>
		<path fill="#DFDFDF" d="M304.6,638.8V623c0-3.6,3.9-5.9,7.1-4.1l13.6,7.9l13.6,7.9c3.1,1.8,3.1,6.3,0,8.1l-13.6,7.9l-13.6,7.9
			c-3.1,1.8-7.1-0.5-7.1-4.1V638.8z"/>
		<path fill="#DFDFDF" d="M352.2,638.8V623c0-3.6,3.9-5.9,7.1-4.1l13.6,7.9l13.6,7.9c3.1,1.8,3.1,6.3,0,8.1l-13.6,7.9l-13.6,7.9
			c-3.1,1.8-7.1-0.5-7.1-4.1V638.8z"/>
		<path fill="#BCBCBC" d="M299.1,628.3v-15.7c0-3.6,3.9-5.9,7.1-4.1l13.6,7.9l13.6,7.9c3.1,1.8,3.1,6.3,0,8.1l-13.6,7.9l-13.6,7.9
			c-3.1,1.8-7.1-0.5-7.1-4.1V628.3z"/>
		<path fill="#BCBCBC" d="M346.7,628.3v-15.7c0-3.6,3.9-5.9,7.1-4.1l13.6,7.9l13.6,7.9c3.1,1.8,3.1,6.3,0,8.1l-13.6,7.9l-13.6,7.9
			c-3.1,1.8-7.1-0.5-7.1-4.1V628.3z"/>
		<path fill="none" stroke="#505050" stroke-width="3" stroke-miterlimit="10" d="M299.1,628.3v-15.7c0-3.6,3.9-5.9,7.1-4.1
			l13.6,7.9l13.6,7.9c3.1,1.8,3.1,6.3,0,8.1l-13.6,7.9l-13.6,7.9c-3.1,1.8-7.1-0.5-7.1-4.1V628.3z"/>
		<path fill="none" stroke="#505050" stroke-width="3" stroke-miterlimit="10" d="M346.7,628.3v-15.7c0-3.6,3.9-5.9,7.1-4.1
			l13.6,7.9l13.6,7.9c3.1,1.8,3.1,6.3,0,8.1l-13.6,7.9l-13.6,7.9c-3.1,1.8-7.1-0.5-7.1-4.1V628.3z"/>
	</g>
	<g id="heart_1_">
		<g>
			<path fill="none" stroke="#505050" stroke-width="3" stroke-miterlimit="10" d="M210.7,594.6v4.4c-0.1,1.2-0.4,2.4-0.8,3.6
				c-1.1,3.2-3.1,6.7-5.9,10.3c-1,1.3-2.1,2.6-3.3,4c-1,1.1-2,2.3-3.1,3.5c-2.3,2.4-4.8,4.9-7.4,7.4c-3.6,3.5-7.5,7.1-11.5,10.8
				c-0.5,0.4-1,0.8-1.5,1.2c-1.2,0.8-2.5,1.4-3.8,1.8c-2.8,0.8-5.8,0.7-8.5-0.3c-1.4-0.5-2.7-1.2-3.8-2.2c-0.2-0.2-0.4-0.3-0.6-0.5
				c-4.2-3.9-8.1-7.5-11.7-11c-2.7-2.6-5.2-5.1-7.4-7.4c-1-1.1-2-2.2-3-3.3c-1.2-1.4-2.3-2.7-3.3-4c-2.8-3.6-4.8-7-5.8-10.3
				c-0.4-1.2-0.6-2.5-0.7-3.6v-4.4c0.2-2.5,0.7-4.8,1.4-6.8c1.3-3.6,3.2-6.5,5.5-8.7c3.4-3.3,7.6-5.1,11.5-5.5
				c1.3-0.1,2.6-0.2,3.7-0.2c4.3,0,7.6,0.8,10.3,2.2c1.4,0.7,2.6,1.6,3.8,2.6c1.6,1.3,3.1,2.9,4.7,4.7c1.3-1.4,2.5-2.8,3.8-3.9
				c1.2-1.1,2.5-2.1,3.8-2.9c3-1.7,6.5-2.7,11.2-2.7c1.2,0,2.4,0,3.7,0.2c3.8,0.3,7.9,2.1,11.3,5.3c2.3,2.2,4.3,5.1,5.6,8.6
				C209.9,589.6,210.5,592,210.7,594.6z"/>
		</g>
	</g>
	<g>
		<path fill="none" stroke="#505050" stroke-width="3" stroke-miterlimit="10" d="M309.9,357.5h-10.4c-6.1,0-11.1,4-11.1,8.9l0,0
			c0,4.9,5,8.9,11.1,8.9h3c4.1,0,7.4,2.7,7.4,5.9l0,0c0,3.3-3.3,5.9-7.4,5.9h-14.1"/>
		<line fill="none" stroke="#505050" stroke-width="3" stroke-miterlimit="10" x1="299.5" y1="357.5" x2="299.5" y2="348"/>
		<line fill="none" stroke="#505050" stroke-width="3" stroke-miterlimit="10" x1="299.5" y1="396.8" x2="299.5" y2="387.3"/>
	</g>
	<g>
		<path fill="none" stroke="#505050" stroke-width="3" stroke-miterlimit="10" d="M996.2,452.8h-10.4c-6.1,0-11.1,4-11.1,8.9l0,0
			c0,4.9,5,8.9,11.1,8.9h3c4.1,0,7.4,2.7,7.4,5.9l0,0c0,3.3-3.3,5.9-7.4,5.9h-14.1"/>
		<line fill="none" stroke="#505050" stroke-width="3" stroke-miterlimit="10" x1="985.8" y1="452.8" x2="985.8" y2="443.3"/>
		<line fill="none" stroke="#505050" stroke-width="3" stroke-miterlimit="10" x1="985.8" y1="492" x2="985.8" y2="482.5"/>
	</g>
	<g>
		<path fill="#DFDFDF" d="M1088.9,464.3c-20.9,0-38.8,14.3-46.1,34.5c7.2,20.2,25.1,34.5,46.1,34.5c20.9,0,38.8-14.3,46.1-34.5
			C1127.7,478.6,1109.8,464.3,1088.9,464.3z"/>
		<circle fill="#D3D3D3" cx="1082.9" cy="489.4" r="20.4"/>
		<path fill="none" stroke="#505050" stroke-width="3" stroke-miterlimit="10" d="M1082.9,454.8c-20.9,0-38.8,14.3-46.1,34.5
			c7.2,20.2,25.1,34.5,46.1,34.5s38.8-14.3,46.1-34.5C1121.8,469.1,1103.9,454.8,1082.9,454.8z"/>
		<circle fill="none" stroke="#505050" stroke-width="3" stroke-miterlimit="10" cx="1082.9" cy="489.4" r="20.4"/>
	</g>
	<path fill="#DFDFDF" d="M939.4,327.8l4.5,9.1c0.9,1.8,2.6,3,4.5,3.3l10,1.5c4.9,0.7,6.9,6.7,3.3,10.2l-7.3,7.1
		c-1.4,1.4-2,3.3-1.7,5.3l1.7,10c0.8,4.9-4.3,8.6-8.7,6.3l-9-4.7c-1.7-0.9-3.8-0.9-5.6,0l-9,4.7c-4.4,2.3-9.5-1.4-8.7-6.3l1.7-10
		c0.3-1.9-0.3-3.9-1.7-5.3l-7.3-7.1c-3.5-3.5-1.6-9.5,3.3-10.2l10-1.5c1.9-0.3,3.6-1.5,4.5-3.3l4.5-9.1
		C930.9,323.4,937.2,323.4,939.4,327.8z"/>
	<path fill="#DFDFDF" d="M39.2,369l2.7,5.4c0.5,1.1,1.5,1.8,2.7,1.9l6,0.9c2.9,0.4,4.1,4,2,6.1l-4.3,4.2c-0.8,0.8-1.2,2-1,3.2l1,6
		c0.5,2.9-2.6,5.1-5.2,3.8l-5.3-2.8c-1-0.5-2.3-0.5-3.3,0l-5.3,2.8c-2.6,1.4-5.7-0.8-5.2-3.8l1-6c0.2-1.2-0.2-2.3-1-3.2l-4.3-4.2
		c-2.1-2.1-0.9-5.6,2-6.1l6-0.9c1.2-0.2,2.2-0.9,2.7-1.9l2.7-5.4C34.1,366.4,37.9,366.4,39.2,369z"/>
	<path fill="none" stroke="#505050" stroke-width="3" stroke-miterlimit="10" d="M1247.5,723.6h-50.4c-10.4,0-18.8-8.4-18.8-18.8
		V603.6c0-10.4,8.4-18.8,18.8-18.8h50.4c10.4,0,18.8,8.4,18.8,18.8v101.2C1266.3,715.1,1257.9,723.6,1247.5,723.6z"/>
	<path fill="none" stroke="#505050" stroke-width="3" stroke-miterlimit="10" d="M1247.9,712.5h-51.2c-10.1,0-18.4-8.2-18.4-18.4
		v-79.9c0-10.1,8.2-18.4,18.4-18.4h51.2c10.1,0,18.4,8.2,18.4,18.4v79.9C1266.3,704.3,1258.1,712.5,1247.9,712.5z"/>
	<path fill="#505050" d="M1247.9,712.5h-51.2c-10.1,0-18.4-8.2-18.4-18.4v-79.9c0-10.1,8.2-18.4,18.4-18.4h51.2
		c10.1,0,18.4,8.2,18.4,18.4v79.9C1266.3,704.3,1258.1,712.5,1247.9,712.5z"/>
	
		<polyline fill="none" stroke="#BCBCBC" stroke-width="3" stroke-linecap="round" stroke-linejoin="round" stroke-miterlimit="10" points="
		1207.9,647.2 1222.3,660.5 1240,634.4 	"/>
	<path fill="none" stroke="#505050" stroke-width="3" stroke-miterlimit="10" d="M1100.3,380.9h-70.2c-4.6,0-8.4-3.7-8.4-8.4v-49
		c0-4.6,3.7-8.4,8.4-8.4h17.5c2.3,0,4.5,0.9,6,2.6l9.1,9.5h37.5c4.6,0,8.4,3.7,8.4,8.4v36.9C1108.7,377.2,1105,380.9,1100.3,380.9z"
		/>
	<path fill="none" stroke="#505050" stroke-width="3" stroke-miterlimit="10" d="M1220.1,410.4c20.7,0,37.5,16.8,37.5,37.5
		c0,15.8-9.8,29.4-23.7,34.9c2.5,4.5,6.2,8.7,10.7,12.3c-1.2-0.1-2.4-0.3-3.6-0.5c-7.5-1.4-13.9-4.8-18.6-9.2
		c-0.7,0-1.5,0.1-2.2,0.1c-20.7,0-37.5-16.8-37.5-37.5C1182.6,427.2,1199.4,410.4,1220.1,410.4z"/>
	
		<line fill="none" stroke="#505050" stroke-width="3" stroke-linecap="round" stroke-miterlimit="10" stroke-dasharray="12" x1="750.5" y1="608" x2="750.5" y2="755.6"/>
	<path fill="none" stroke="#505050" stroke-width="3" stroke-miterlimit="10" d="M633.8,692.9H604v-32.4c0-8.2,6.7-14.9,14.9-14.9
		l0,0c8.2,0,14.9,6.7,14.9,14.9V692.9z"/>
	<path fill="none" stroke="#505050" stroke-width="3" stroke-miterlimit="10" d="M548.1,645.6c-8.3,0-15,6.7-15,15v82.8H604v-50.6
		v-32.4c0-8.2,6.7-14.9,14.9-14.9H548.1z"/>
	<line fill="none" stroke="#505050" stroke-width="3" stroke-miterlimit="10" x1="21.3" y1="618" x2="21.3" y2="679.4"/>
	
		<polygon fill="none" stroke="#505050" stroke-width="3" stroke-linecap="round" stroke-linejoin="round" stroke-miterlimit="10" points="
		50.7,639.8 36,648.3 21.3,656.8 21.3,639.8 21.3,622.8 36,631.3 	"/>
	<polygon fill="#BCBCBC" points="1207.1,288.9 1192.4,297.4 1177.6,305.9 1177.6,288.9 1177.6,271.9 1192.4,280.4 	"/>
	<line fill="none" stroke="#505050" stroke-width="3" stroke-miterlimit="10" x1="1177.6" y1="267.2" x2="1177.6" y2="328.5"/>
	
		<polygon fill="none" stroke="#505050" stroke-width="3" stroke-linecap="round" stroke-linejoin="round" stroke-miterlimit="10" points="
		1207.1,288.9 1192.4,297.4 1177.6,305.9 1177.6,288.9 1177.6,271.9 1192.4,280.4 	"/>
</g>
</svg>
